<?xml version="1.0" encoding="UTF-8" standalone="no"?>
<svg
   preserveAspectRatio="xMidYMid meet"
   version="1.0"
   viewBox="168.7 281.9 665.9 432.5"
   zoomAndPan="magnify"
   style="fill: rgb(125, 78, 6);"
   original_string_length="8075"
   width="29.963093196029345px"
   height="19.48050954036142px"
   id="svg19"
   sodipodi:docname="corner.svg"
   inkscape:version="1.4.2 (ebf0e940d0, 2025-05-08)"
   xmlns:inkscape="http://www.inkscape.org/namespaces/inkscape"
   xmlns:sodipodi="http://sodipodi.sourceforge.net/DTD/sodipodi-0.dtd"
   xmlns="http://www.w3.org/2000/svg"
   xmlns:svg="http://www.w3.org/2000/svg">
  <defs
     id="defs19" />
  <sodipodi:namedview
     id="namedview19"
     pagecolor="#ffffff"
     bordercolor="#000000"
     borderopacity="0.25"
     inkscape:showpageshadow="2"
     inkscape:pageopacity="0.0"
     inkscape:pagecheckerboard="0"
     inkscape:deskcolor="#d1d1d1"
     inkscape:zoom="31.00481"
     inkscape:cx="14.96542"
     inkscape:cy="9.7242976"
     inkscape:window-width="1918"
     inkscape:window-height="1150"
     inkscape:window-x="1920"
     inkscape:window-y="24"
     inkscape:window-maximized="1"
     inkscape:current-layer="svg19" />
  <g
     id="g19"
     transform="rotate(180,500.00502,499.99498)">
    <g
       id="__id1_stwk72kzgd">
      <path
         d="M 796.36,306.26 H 238.43 c -1.93,0 -3.49,-1.56 -3.49,-3.49 v -0.07 c 0,-1.93 1.56,-3.49 3.49,-3.49 49.81,0.12 489.16,1.18 557.21,-13.54 2.17,-0.47 4.21,1.19 4.21,3.41 v 13.69 c -0.01,1.93 -1.57,3.49 -3.49,3.49 z"
         id="path1" />
    </g>
    <g
       id="__id2_stwk72kzgd">
      <path
         d="m 810.63,319.33 v 330.2 c 0,1.92 1.56,3.49 3.49,3.49 h 0.07 c 1.93,0 3.49,-1.56 3.49,-3.49 -0.12,-49.81 -1.18,-261.44 13.54,-329.48 0.47,-2.17 -1.19,-4.21 -3.41,-4.21 h -13.69 c -1.93,0.01 -3.49,1.57 -3.49,3.49 z"
         id="path2" />
    </g>
    <g
       id="__id3_stwk72kzgd">
      <path
         d="m 817.97,306.14 c -4.06,0 -7.34,-3.29 -7.34,-7.34 0,-4.06 3.29,-7.34 7.34,-7.34 4.06,0 7.34,3.29 7.34,7.34 0.01,4.05 -3.28,7.34 -7.34,7.34 z"
         id="path3" />
    </g>
    <g
       id="__id4_stwk72kzgd">
      <path
         d="m 809.39,313.49 c 0.01,3.5 -2.81,6.35 -6.31,6.36 v 0 c -3.5,0.01 -6.35,-2.81 -6.36,-6.31 v 0 c -0.01,-3.5 2.81,-6.35 6.31,-6.36 v 0 c 3.5,-0.01 6.35,2.81 6.36,6.31 z"
         id="path4" />
    </g>
    <g
       id="__id5_stwk72kzgd">
      <path
         d="m 802.97,669.52 c -31.33,39.15 -0.18,44.88 -0.18,44.88 31.83,-7.98 0.18,-44.88 0.18,-44.88 z m -1.49,34.38 c 0,-0.83 0.67,-1.49 1.5,-1.49 0.82,0 1.49,0.67 1.49,1.5 0,0.82 -0.67,1.49 -1.5,1.49 -0.83,0 -1.49,-0.67 -1.49,-1.5 z m 1.47,-4.19 c -9.29,-17.96 0.08,-20.49 0.08,-20.49 9.54,3.74 -0.08,20.49 -0.08,20.49 z"
         id="path5" />
    </g>
    <g
       id="__id6_stwk72kzgd">
      <path
         d="m 807.25,666.62 c 0.01,-2.28 -1.83,-4.13 -4.11,-4.14 v 0 c -2.28,-0.01 -4.13,1.83 -4.14,4.11 v 0 c -0.01,2.28 1.83,4.13 4.11,4.14 v 0 c 2.27,0.01 4.13,-1.83 4.14,-4.11 z"
         id="path6" />
    </g>
    <g
       id="__id7_stwk72kzgd">
      <path
         d="m 801.01,313.52 h 4.48 v 348.96 h -4.48 z"
         id="path7" />
    </g>
    <g
       id="__id8_stwk72kzgd">
      <path
         d="m 213.59,313.24 c -39.15,-31.33 -44.88,-0.18 -44.88,-0.18 7.97,31.82 44.88,0.18 44.88,0.18 z m -34.38,-1.5 c 0.83,0 1.49,0.67 1.49,1.5 0,0.82 -0.67,1.49 -1.5,1.49 -0.82,0 -1.49,-0.67 -1.49,-1.5 0,-0.82 0.67,-1.49 1.5,-1.49 z m 4.19,1.47 c 17.96,-9.29 20.49,0.08 20.49,0.08 -3.74,9.54 -20.49,-0.08 -20.49,-0.08 z"
         id="path8" />
    </g>
    <g
       id="__id9_stwk72kzgd">
      <path
         d="m 216.49,317.51 c 2.28,0.01 4.13,-1.83 4.14,-4.11 v 0 c 0.01,-2.28 -1.83,-4.13 -4.11,-4.14 v 0 c -2.28,-0.01 -4.13,1.83 -4.14,4.11 v 0 c -0.01,2.28 1.83,4.13 4.11,4.14 z"
         id="path9" />
    </g>
    <g
       id="__id10_stwk72kzgd">
      <path
         d="m 220.63,311.27 h 580.38 v 4.48 H 220.63 Z"
         id="path10" />
    </g>
    <g
       id="__id11_stwk72kzgd">
      <path
         d="m 498.35,328.47 -264.49,3.2 264.49,3.2 c 1.77,0.02 3.22,-1.39 3.24,-3.16 0.02,-1.77 -1.39,-3.22 -3.16,-3.24 z"
         id="path11" />
      <path
         d="m 375.9,331.67 h 1.93 c 0,2.08 1.68,3.76 3.76,3.76 2.08,0 3.76,-1.68 3.76,-3.76 0,-2.08 -1.68,-3.76 -3.76,-3.76 -2.08,0 -3.76,1.68 -3.76,3.76 h -1.93 -1.93 c 0,-4.21 3.41,-7.62 7.62,-7.62 4.21,0 7.62,3.41 7.62,7.62 0,4.21 -3.41,7.62 -7.62,7.62 -4.21,0 -7.62,-3.41 -7.62,-7.62 z"
         id="path12" />
    </g>
    <g
       id="__id12_stwk72kzgd">
      <path
         d="m 721.85,424.08 c -0.09,0.1 -0.18,0.2 -0.27,0.3 0.21,-0.08 0.41,-0.16 0.6,-0.24 -0.1,-0.02 -0.22,-0.03 -0.33,-0.06 z"
         id="path13" />
      <path
         d="m 797.36,470.01 c -0.92,-1.19 -1.76,-2.36 -2.74,-3.32 -3.84,-3.92 -7.78,-5.89 -10.51,-6.92 -2.78,-0.98 -4.4,-1.22 -4.49,-0.98 -0.11,0.25 1.27,1.14 3.55,2.73 2.24,1.63 5.34,4.2 7.89,8.04 0.66,0.94 1.16,2.04 1.73,3.11 0.44,1.15 0.99,2.29 1.28,3.57 0.73,2.49 1.08,5.25 0.95,8.15 -0.14,5.78 -2.08,12.02 -5.25,17.78 -3.18,5.76 -7.62,11.06 -12.67,15.11 -5.05,4.03 -10.71,6.81 -15.92,7.65 -2.61,0.47 -5.04,0.54 -7.34,0.19 -2.3,-0.31 -4.46,-0.87 -6.26,-1.7 -3.74,-1.52 -5.87,-3.73 -6.9,-5.19 -1.06,-1.51 -1.49,-2.84 -1.56,-4.49 0.01,-0.21 0,-0.42 -0.01,-0.63 l -0.03,-0.32 0.07,-0.35 c 0.09,-0.46 0.16,-0.93 0.2,-1.4 0.17,-0.5 0.34,-1 0.48,-1.51 0.07,-0.24 0.14,-0.54 0.21,-0.74 0.07,-0.18 0.14,-0.36 0.2,-0.54 0.6,-1.41 1.65,-2.76 2.96,-3.84 1.29,-1.08 2.84,-1.83 3.91,-2.22 0.27,-0.1 0.49,-0.18 0.65,-0.26 0.06,-0.03 0.18,-0.09 0.19,-0.12 0.06,-0.1 0.03,0.07 0.21,-0.41 0.13,-0.28 0.26,-0.51 0.38,-0.71 0.07,0.32 0.12,0.67 0.13,1.05 -0.04,2.28 -0.27,4.24 0.73,5.01 0.91,0.73 2.86,0.58 5.43,-1.81 0.63,-0.64 1.28,-1.47 1.86,-2.67 0.51,-1.24 1.05,-2.97 0.51,-5.29 -0.27,-1.12 -0.85,-2.32 -1.64,-3.27 -0.4,-0.51 -0.83,-0.94 -1.28,-1.31 -0.47,-0.41 -0.93,-0.71 -1.41,-1 -1.93,-1.14 -3.85,-1.61 -5.71,-1.83 -3.71,-0.38 -7.39,0.25 -11.04,1.84 -3.61,1.61 -7.25,4.33 -9.96,8.33 l -0.95,1.55 c -0.29,0.52 -0.49,0.98 -0.74,1.48 -0.47,0.99 -0.93,2 -1.37,3.04 -0.34,1.13 -0.67,2.29 -0.97,3.48 l -0.22,0.89 -0.11,0.96 -0.18,1.94 c -0.39,5.22 1.26,11.09 4.49,15.49 3.15,4.48 8.61,8.79 15.43,11.01 3.39,1.21 7.14,1.89 11.1,2.05 3.96,0.21 8.2,-0.34 12.2,-1.5 4.25,-1.19 8.26,-3.1 11.96,-5.49 -3.88,34.37 19.95,73.28 24.17,79.84 v -38.36 c -0.16,0.3 -0.27,0.56 -0.43,0.87 0,0 -21.37,-34.56 0.43,-45.91 v -53.64 c -0.39,-1.16 -0.78,-2.3 -1.33,-3.35 -0.59,-1.5 -1.49,-2.81 -2.28,-4.08 z"
         id="path14" />
      <path
         d="m 799.83,312.64 c -4.21,6.99 -22.9,40.43 -22.83,40.62 9.67,23.29 11.78,50.54 12.07,54.43 0.02,0.25 0.16,0.43 0.33,0.43 l 9.05,10.24 c 0.67,0.76 1.62,1.05 2.55,0.96 v -107 c -0.41,-0.2 -0.87,-0.18 -1.17,0.32 z"
         id="path15" />
      <path
         d="m 801.01,461.16 v -38.31 l -14.84,14.09 c 2.65,3.56 14.67,23.93 14.84,24.22 z"
         id="path16" />
      <path
         d="m 727.8,368.66 c 2.66,1.38 5.21,3.03 7.51,4.75 1.12,0.88 2.21,1.76 3.22,2.61 0.97,0.89 1.94,1.71 2.79,2.52 1.59,1.53 2.99,2.87 4.11,3.96 1.04,0.95 1.77,1.44 2.08,1.3 0.34,-0.16 0.44,-1.03 0.31,-2.49 -0.08,-0.73 -0.17,-1.62 -0.39,-2.62 -0.23,-0.99 -0.52,-2.11 -0.87,-3.35 -0.37,-1.22 -0.88,-2.52 -1.41,-3.94 -0.59,-1.39 -1.27,-2.85 -2.05,-4.37 -1.61,-3 -3.71,-6.17 -6.32,-9.23 -2.65,-3.01 -5.83,-5.88 -9.44,-8.25 -3.6,-2.38 -7.61,-4.25 -11.7,-5.42 -4.08,-1.18 -8.22,-1.63 -11.94,-1.44 -3.72,0.2 -7,0.88 -9.41,1.87 -4.84,1.82 -9.13,5.11 -11.85,9.03 -2.76,3.9 -3.96,8.15 -3.93,11.56 0.03,3.43 1.03,6.02 2.36,7.62 1.37,1.62 2.92,2.31 4.57,2.28 3.34,-0.07 6.21,-2.81 9.1,-4.52 1.42,-0.89 2.82,-1.49 4.1,-2.02 1.29,-0.53 2.59,-1.02 4.21,-1.64 0.2,-0.07 0.42,-0.17 0.65,-0.28 0.25,-0.08 0.52,-0.17 0.8,-0.29 0.27,-0.13 0.59,-0.22 0.92,-0.33 0.34,-0.1 0.67,-0.26 1.06,-0.34 1.51,-0.45 3.46,-0.82 5.74,-0.87 2.28,-0.06 4.87,0.19 7.58,0.84 2.71,0.68 5.5,1.72 8.2,3.06 z"
         id="path17" />
      <path
         d="m 616.86,395.63 c 0.71,-0.91 0.91,-1.82 0.71,-2.69 -0.41,-1.77 -2.19,-3 -3.42,-4.36 -0.63,-0.66 -1.11,-1.34 -1.53,-1.96 -0.43,-0.63 -0.83,-1.27 -1.34,-2.07 -0.06,-0.1 -0.14,-0.21 -0.22,-0.32 -0.07,-0.13 -0.15,-0.26 -0.24,-0.39 -0.1,-0.13 -0.18,-0.29 -0.28,-0.46 -0.09,-0.17 -0.22,-0.33 -0.3,-0.53 -0.41,-0.76 -0.82,-1.76 -1.1,-2.97 -0.29,-1.21 -0.44,-2.62 -0.4,-4.14 0.04,-1.52 0.29,-3.12 0.7,-4.71 0.44,-1.57 1.04,-3.12 1.7,-4.54 0.35,-0.7 0.69,-1.37 1.04,-2.01 0.37,-0.62 0.7,-1.22 1.03,-1.77 0.64,-1.02 1.2,-1.91 1.66,-2.64 0.39,-0.66 0.57,-1.11 0.47,-1.25 -0.12,-0.17 -0.6,-0.12 -1.36,0.11 -0.38,0.12 -0.85,0.27 -1.35,0.5 -0.5,0.23 -1.07,0.51 -1.69,0.83 -0.61,0.33 -1.25,0.75 -1.95,1.19 -0.67,0.47 -1.38,1 -2.1,1.58 -1.42,1.2 -2.88,2.67 -4.22,4.4 -1.31,1.75 -2.49,3.77 -3.35,5.96 -0.87,2.19 -1.42,4.54 -1.59,6.85 -0.18,2.31 0.04,4.57 0.56,6.54 0.52,1.96 1.25,3.64 2.05,4.81 1.51,2.38 3.74,4.31 6.14,5.32 2.39,1.04 4.79,1.21 6.61,0.81 1.79,-0.38 3.06,-1.2 3.77,-2.09 z"
         id="path18" />
      <path
         d="m 595.94,326.71 c -23.87,3.92 -49.36,6.24 -73.12,-2.34 -2.67,-0.96 -5.64,-0.62 -6.42,1.18 -1.86,1.08 -1.86,4.08 -0.34,6.44 11.5,17.84 34.56,27.15 55.79,29.51 21.92,2.44 39.8,-10.52 55.82,-22.24 -2.78,9.49 -3.9,19.32 1.79,28.72 2.48,4.1 12.01,13.52 8.95,-1.84 -3.21,-16.08 15.33,-28.01 29.66,-34.9 17.08,-8.21 39,-6.27 57.54,-1.19 0.53,0.15 1.02,0.19 1.49,0.19 1.71,0.79 3.42,1.63 5.09,2.55 32.07,17.73 42.86,51.7 35.62,82.2 -5.64,23.77 -22.12,53.5 -51.09,57.48 -12.75,1.75 -26.64,-3.61 -35.14,-12.46 -2.67,-2.78 -3.75,-5.3 -4.9,-7.71 -3.13,-6.57 -0.42,-16.86 4.46,-23.55 7.61,7.41 21.11,10.35 31.94,10.08 14.43,-0.36 28.61,-10.62 26.57,-22.8 0.06,-0.82 -2.7,-6.99 -3.4,-8.4 -10.45,-21.06 -51.57,-15.99 -68.24,5.96 -18.61,24.5 -1.36,52.93 27.12,64.46 26.92,10.89 51.52,-5.44 65.51,-24.39 15.62,-21.14 23.33,-50.12 17.41,-76.23 -4.65,-20.48 -21.88,-40.7 -41.08,-52.01 -19.59,-11.54 -43.6,-12.97 -65.44,-11.1 -25.63,2.2 -50.4,8.25 -75.59,12.39 z m 125.91,97.37 c 0.11,0.02 0.22,0.03 0.33,0.05 -0.19,0.08 -0.4,0.16 -0.6,0.24 0.1,-0.09 0.19,-0.19 0.27,-0.29 z"
         id="path19" />
    </g>
  </g>
</svg>
