<svg xmlns="http://www.w3.org/2000/svg" xmlns:xlink="http://www.w3.org/1999/xlink" preserveAspectRatio="xMidYMid meet" version="1.0" viewBox="0.0 0.0 484.5 11.3" zoomAndPan="magnify" style="fill: rgb(125, 78, 6);" original_string_length="6725" width="130.23613664441197px" height="2.841515708605352px"><g><g><g id="__id0_stwk72kzgd"><path d="M240.47,2.35c-.34-.35-.75-.7-1.24-1.03-.48-.33-1.04-.64-1.65-.92-.31-.14-.63-.26-.97-.38h-.04v.03c.13,.33,.26,.66,.4,.97,.27,.62,.59,1.17,.92,1.65,.33,.48,.68,.89,1.03,1.24,.35,.34,.7,.61,1.03,.83,.56,.37,1.06,.57,1.44,.69,.08-.29,.31-.52,.6-.6-.12-.38-.32-.89-.69-1.44-.22-.33-.49-.68-.83-1.03Z" style="fill: inherit;"/><path d="M243.06,5.42c.38-.12,.89-.32,1.44-.69,.66-.43,1.4-1.1,2.06-2.07,.33-.48,.64-1.04,.92-1.65,.14-.31,.26-.63,.38-.97v-.04h-.03c-.33,.13-.66,.26-.97,.4-.62,.27-1.17,.59-1.65,.92-.48,.33-.89,.68-1.24,1.03-.34,.35-.61,.7-.83,1.03-.37,.56-.57,1.06-.69,1.44,.29,.08,.52,.31,.6,.6Z" style="fill: inherit;"/><path d="M247.48,10.29c-.27-.62-.59-1.17-.92-1.65-.66-.97-1.4-1.64-2.06-2.07-.56-.37-1.06-.57-1.44-.69-.08,.29-.31,.52-.6,.6,.12,.38,.32,.89,.69,1.44,.43,.66,1.1,1.4,2.07,2.06,.48,.33,1.04,.64,1.65,.92,.31,.14,.63,.26,.97,.38h.04v-.03c-.13-.33-.26-.66-.39-.97Z" style="fill: inherit;"/><path d="M241.39,5.89c-.38,.12-.89,.32-1.44,.69-.33,.22-.68,.49-1.03,.83-.35,.34-.7,.75-1.03,1.24-.33,.48-.64,1.04-.92,1.65-.14,.31-.26,.63-.38,.97v.05h.03c.33-.13,.66-.26,.97-.39,.62-.27,1.17-.59,1.65-.92,.97-.66,1.64-1.4,2.07-2.06,.37-.56,.57-1.06,.69-1.44-.29-.08-.52-.31-.6-.6Z" style="fill: inherit;"/><path d="M232.53,4.51c-2.48,0-4.49,1.15-4.49,1.15,0,0,2.01,1.15,4.49,1.15s4.49-1.15,4.49-1.15c0,0-2.01-1.15-4.49-1.15Z" style="fill: inherit;"/><path d="M228.96,8.16l.06,.02s-.03,0-.07-.02h0Z" style="fill: inherit;"/><path d="M228.61,7.15c-.06-.12-.12-.23-.18-.33-.13-.21-.26-.38-.4-.52-.28-.29-.56-.45-.8-.54-.2-.07-.37-.09-.5-.1h0c.13,0,.3-.03,.5-.1,.24-.09,.52-.25,.8-.54,.14-.14,.28-.32,.4-.52,.06-.1,.12-.21,.18-.33,.06-.12,.11-.24,.16-.38,0-.02,.12-.41,.17-.58,0,0-.11,.02-.12,.02-.15,.03-.31,.04-.45,.08-.15,.04-.29,.1-.43,.17-.12,.06-.23,.12-.33,.18-.21,.13-.38,.26-.52,.4-.29,.28-.45,.56-.54,.8-.07,.2-.09,.37-.1,.5h0c0-.13-.03-.3-.1-.5-.09-.24-.25-.52-.54-.8-.14-.14-.32-.28-.52-.4-.1-.06-.21-.12-.33-.18-.12-.06-.24-.11-.38-.16-.03-.01-.06-.02-.09-.03-.07-.02-.7-.18-.78-.2-.16-.03-.32-.05-.48-.06-.16-.01-.33-.02-.5-.02-.67,0-1.36,.14-1.95,.39-.59,.25-1.07,.61-1.38,1.01-.15,.19-.26,.39-.33,.58H0v1.3H219.06c.07,.2,.18,.4,.33,.59,.31,.4,.8,.76,1.38,1.01,.59,.25,1.28,.39,1.95,.39,.17,0,.33,0,.5-.02h.12l.06-.02h.06l.12-.02s.08-.01,.12-.02c.08-.01,.7-.18,.78-.2,.03-.01,.06-.02,.09-.03,.13-.05,.26-.1,.38-.16,.12-.06,.23-.12,.33-.18,.21-.13,.38-.26,.52-.4,.29-.28,.45-.56,.54-.8,.07-.2,.09-.37,.1-.5h0c0,.13,.03,.3,.1,.5,.09,.24,.25,.52,.54,.8,.14,.14,.32,.28,.52,.4,.1,.06,.21,.12,.33,.18,.12,.06,.24,.11,.38,.16,.03,0,.47,.13,.64,.17-.03-.1-.17-.6-.18-.63-.05-.13-.1-.26-.16-.38Zm-2.45-1.5c-.13,0-.3,.03-.5,.1-.24,.09-.52,.25-.8,.54-.14,.14-.28,.32-.4,.52-.06,.1-.12,.21-.18,.33-.06,.12-.11,.24-.16,.38-.01,.03-.02,.06-.03,.09h-.05l-.09,.02c-.12,.02-.25,.03-.37,.04-.03,0-.06,0-.1,0h-.29c-.13,0-.26,0-.38-.02-.51-.05-.99-.2-1.38-.41-.2-.11-.37-.22-.52-.35-.07-.06-.14-.13-.2-.2-.03-.03-.06-.07-.09-.1-.01-.02-.03-.03-.04-.05l-.04-.05c-.1-.14-.16-.29-.2-.43-.04-.14-.06-.28-.06-.42,0-.13,.02-.28,.06-.42,.04-.14,.11-.29,.2-.43,.09-.14,.21-.28,.36-.41,.15-.13,.32-.25,.52-.35,.39-.21,.87-.36,1.38-.41,.13-.01,.26-.02,.38-.02,.13,0,.26,0,.38,.01,.13,0,.25,.02,.37,.04l.09,.02h.05s.02,.07,.03,.1c.05,.13,.1,.26,.16,.38,.06,.12,.12,.23,.18,.33,.13,.21,.26,.38,.4,.52,.28,.29,.56,.45,.8,.54,.2,.07,.37,.09,.5,.1h0Zm.58-.73c.14-.21,.35-.45,.67-.67,.16-.11,.33-.21,.53-.3,.1-.04,.2-.08,.31-.12h0c-.04,.12-.08,.22-.12,.32-.09,.2-.19,.38-.3,.53-.21,.31-.45,.53-.67,.67-.18,.12-.34,.18-.47,.22-.03-.09-.1-.17-.19-.19,.04-.12,.1-.29,.22-.47Zm1.51,2.55c-.11-.04-.21-.08-.31-.12-.2-.09-.38-.19-.53-.3-.16-.11-.29-.22-.4-.33-.11-.11-.2-.23-.27-.33-.12-.18-.18-.34-.22-.47,.09-.03,.17-.1,.19-.19,.12,.04,.29,.1,.47,.22,.21,.14,.45,.35,.67,.67,.11,.16,.21,.33,.3,.53,.04,.1,.08,.2,.12,.31h-.01Z" style="fill: inherit;"/><path d="M221.68,5.65s.85,.49,1.9,.49,1.9-.49,1.9-.49c0,0-.85-.49-1.9-.49s-1.9,.49-1.9,.49Z" style="fill: inherit;"/><path d="M251.92,4.51c-2.48,0-4.49,1.15-4.49,1.15,0,0,2.01,1.15,4.49,1.15s4.49-1.15,4.49-1.15c0,0-2.01-1.15-4.49-1.15Z" style="fill: inherit;"/><path d="M255.49,8.16h0s-.06,.01-.07,.02l.06-.02Z" style="fill: inherit;"/><path d="M265.39,5c-.07-.2-.18-.39-.33-.58-.31-.4-.79-.76-1.38-1.01-.59-.25-1.28-.39-1.95-.39-.17,0-.33,0-.5,.02-.16,.01-.32,.03-.48,.06-.08,.01-.7,.18-.78,.2-.03,.01-.06,.02-.09,.03-.13,.05-.26,.1-.38,.16-.12,.06-.23,.12-.33,.18-.21,.13-.38,.26-.52,.4-.29,.28-.45,.56-.54,.8-.07,.2-.1,.37-.1,.5h0c0-.13-.03-.3-.1-.5-.09-.24-.25-.52-.54-.8-.14-.14-.32-.28-.52-.4-.1-.06-.21-.12-.33-.18-.14-.07-.28-.13-.43-.17-.15-.04-.3-.06-.45-.08-.01,0-.12-.01-.12-.02,.05,.16,.16,.55,.17,.58,.05,.13,.1,.26,.16,.38,.06,.12,.12,.23,.18,.33,.13,.21,.26,.38,.4,.52,.28,.29,.56,.45,.8,.54,.2,.07,.37,.09,.5,.1h0c-.13,0-.3,.03-.5,.1-.24,.09-.52,.25-.8,.54-.14,.14-.28,.32-.4,.52-.06,.1-.12,.21-.18,.33-.06,.12-.11,.24-.16,.38-.01,.03-.15,.53-.18,.63,.17-.05,.62-.16,.64-.17,.13-.05,.26-.1,.38-.16,.12-.06,.23-.12,.33-.18,.21-.13,.38-.26,.52-.4,.29-.28,.45-.56,.54-.8,.07-.2,.09-.37,.1-.5h0c0,.13,.03,.3,.1,.5,.09,.24,.25,.52,.54,.8,.14,.14,.32,.28,.52,.4,.1,.06,.21,.12,.33,.18,.12,.06,.24,.11,.38,.16,.03,.01,.06,.02,.09,.03,.07,.02,.7,.19,.78,.2,.04,0,.08,.01,.12,.02l.12,.02h.12l.12,.03c.16,.01,.33,.02,.5,.02,.67,0,1.36-.14,1.95-.39,.59-.25,1.07-.61,1.38-1.01,.15-.19,.26-.39,.33-.59h219.06v-1.3h-219.06Zm-7.68,1.39c-.07,.11-.16,.22-.27,.33-.11,.11-.24,.23-.4,.33-.16,.11-.33,.21-.53,.3-.1,.04-.2,.08-.31,.12h-.01c.04-.12,.08-.22,.12-.32,.09-.2,.19-.38,.3-.53,.21-.31,.45-.53,.67-.67,.18-.12,.34-.18,.47-.22,.03,.09,.1,.17,.19,.19-.04,.12-.1,.29-.22,.47Zm.03-.81c-.12-.04-.29-.1-.47-.22-.21-.14-.45-.35-.67-.67-.11-.16-.21-.33-.3-.53-.04-.1-.08-.2-.12-.31h0c.11,.03,.21,.07,.31,.11,.2,.09,.38,.19,.53,.3,.31,.21,.53,.45,.67,.67,.12,.18,.18,.34,.22,.47-.09,.03-.17,.1-.19,.19Zm6.38,.49c-.04,.14-.11,.29-.2,.43l-.04,.05s-.03,.03-.04,.05c-.03,.04-.06,.07-.09,.1-.06,.07-.13,.14-.2,.2-.15,.13-.32,.25-.52,.35-.39,.21-.87,.36-1.38,.41-.13,.01-.26,.02-.38,.02h-.29s-.06,0-.1-.01c-.13,0-.25-.02-.37-.04l-.09-.02h-.05s-.02-.07-.03-.1c-.05-.13-.1-.26-.16-.38-.06-.12-.12-.23-.18-.33-.13-.21-.26-.38-.4-.52-.28-.29-.56-.45-.8-.54-.2-.07-.37-.09-.5-.1h0c.13,0,.3-.03,.5-.1,.24-.09,.52-.25,.8-.54,.14-.14,.28-.32,.4-.52,.06-.1,.12-.21,.18-.33,.06-.12,.11-.24,.16-.38,.01-.03,.02-.06,.03-.09h.05l.09-.02c.12-.02,.25-.03,.37-.04,.13-.01,.25-.01,.38-.01,.13,0,.26,0,.38,.02,.51,.05,.99,.2,1.38,.41,.2,.11,.37,.22,.52,.35,.15,.13,.27,.27,.36,.41,.09,.14,.16,.29,.2,.43,.04,.14,.06,.28,.06,.42,0,.13-.02,.28-.06,.42Z" style="fill: inherit;"/><path d="M258.96,5.65s.85,.49,1.9,.49,1.9-.49,1.9-.49c0,0-.85-.49-1.9-.49s-1.9,.49-1.9,.49Z" style="fill: inherit;"/></g></g></g></svg>