<svg preserveAspectRatio="xMidYMid meet" version="1.0" viewBox="36.0 1315.2 3931.5 369.3" xmlns="http://www.w3.org/2000/svg" xmlns:xlink="http://www.w3.org/1999/xlink" zoomAndPan="magnify" style="fill: rgb(0, 0, 0);" original_string_length="3782" width="100.50496324678492px" height="9.431925594624524px"><g><g id="__id13_stwk72kzgd"><path d="M1954.2,1315.2c22.4,15.3,36.6,41.5,41.7,67.8c5,22.3-9.1,43-6.9,65.2c1.3,9.9,6.3,18.8,10.5,27.7 c7.1-12.2,13.5-26.1,10.9-40.6c-2.3-14.2-8.2-27.8-7.7-42.4c0.5-23,11.6-44.2,25.4-62.1c5.1-5.6,9.8-12.7,17.5-14.9 c-14.6,24.9-27.5,55.7-15.9,84.3c7.5,17.1,14.7,35.2,12.7,54.3c21.6-24.6,50.7-45.8,84.4-48.1c33-2.4,61.6,21.1,94.6,18.6 c13.5-1,23.6-11.4,29.8-22.6c4.8-1.5,2.8,5.9,3.8,8.5c0,17-11.8,32.4-26.7,39.8c-19.5,9.7-42.6,9.5-63.2,3.8 c-19.6-5-39-16.5-59.8-10.7c-27.9,7.5-48.2,31-60.7,56.1c12.5,25.1,32.8,48.6,60.8,56.2c21.3,5.9,41-6.3,61.1-11.1 c20.3-5.5,42.9-5.4,62,4.1c14.8,7.5,26.6,22.9,26.6,39.9c-1.1,2.5,0.9,10-3.8,8.3c-6.3-11.2-16.3-21.6-29.9-22.6 c-33-2.5-61.6,21-94.6,18.6c-33.6-2.4-62.8-23.5-84.3-48.2c5.1,30.9-21.9,56-16.7,86.7c2.9,17.9,9.2,35.6,19.8,50.4 c-0.8,0.3-2.5,0.9-3.3,1.2c-21.6-19.6-38.1-46.9-39.4-76.5c-0.9-18.9,10-36.2,7.9-55.1c-1.5-9.9-6.4-18.8-10.4-27.9 c-5.2,7.4-8.6,15.9-10.8,24.6c-4.1,23,11.5,44.3,6.6,67.5c-4.9,26.6-19.3,53.1-41.8,68.5c8.5-16.9,17.5-34,19.7-53.1 c4.8-30.5-21.6-55.5-16.9-86.2c-21.5,25-51.3,46.1-85.2,48.2c-33,1.9-61.6-21.6-94.6-18.5c-14.4,1.5-24.1,13.4-30.5,25.2 c-6.6-17.9,3.5-37.5,18.5-47.6c19.4-12.8,44.6-13.6,66.6-7.9c20.4,4.4,39.9,17.1,61.5,11.6c28.4-7.1,49-31,61.7-56.3 c-12.6-25.4-33.3-49.3-61.7-56.4c-20.9-5.4-40.1,6.5-59.8,11.1c-21.8,5.9-46.6,5.6-66.4-6.3c-16-9.8-27.2-30.2-20.4-48.8 c6.5,11.8,16.1,23.7,30.5,25.2c33.1,3.1,61.7-20.4,94.6-18.5c33.9,2,63.8,23.1,85.3,48.2c-2.3-20.8,7-39.8,14.3-58.6 C1980.7,1368,1967,1339.6,1954.2,1315.2z" style="fill: rgb(125, 78, 6);"/></g><g id="__id14_stwk72kzgd"><path d="M133.2,1392c2.5-11.5,15.9-18,26.5-12.9c9.9,5,10.7,17.4,17.3,25.4c20.3,27.4,47.1,49.1,73.4,70.5 c543.6,0.2,1087.2,0.1,1630.8,0.1c10.7,0.4,22.9-1.9,32.3,4.9c9.8,6.8,13.2,21.3,6.9,31.7c-4.5,8.4-14.3,12.8-23.6,12.4 c-548.1,0.2-1096.2-0.2-1644.2,0.2c-10,5.7-18.3,14-27.1,21.3c-22,20-46.3,39.8-58,67.9c-6.3,12.6-27,11.8-32.5-1.1 c-5.6-13-2.4-27.8-6-41.4c-6.2-22.3-23.5-40.3-44.2-50.2c-15.3-8-32.2-11.7-48-18.3c-0.2-1.3-0.6-3.7-0.8-5 c31.7-10.5,68.7-20.4,86-52.1C132.8,1429.6,129.7,1409.8,133.2,1392z M84.3,1500.1c32.6,11.2,57.9,37.4,73.3,67.7 c15.2-19.2,32.8-36.3,51.6-51.9c-7-9.5-7.1-22.3-0.3-31.9c-18.6-15.6-36.4-32.5-51.2-51.8C142.3,1462.5,116.8,1488.6,84.3,1500.1z" style="fill: rgb(125, 78, 6);"/></g><g id="__id15_stwk72kzgd"><path d="M3831.8,1387.2c5.7-13,26.8-12.8,32.6,0c6.3,14,2.3,30.3,7.1,44.8c7.3,22.1,25.3,39.3,46.2,48.7 c14.3,7.2,30.1,10.5,44.7,16.9c5.1,3.8-3.1,6.6-5.9,7.6c-20,6.6-40.7,12.7-57.7,25.6c-12,8.9-21.3,21.4-26.6,35.4 c-5.8,15-1.2,32-7.8,46.7c-5.8,12.9-27,13.1-32.7,0c-4.4-10.3-10.3-19.9-17.8-28.2c-19.7-22.4-42.6-41.9-65.9-60.4 c-548.7-0.2-1097.4,0.1-1646.1-0.1c-16.8,1.4-31.2-17-24.4-32.8c3.8-11.3,16.2-16.9,27.5-16.1c446.6,0,893.2,0,1339.9,0 c101.2-0.2,202.4,0.4,303.6-0.2c15.5-10.5,29.1-23.7,43-36.2C3807.3,1423.7,3823.5,1407.8,3831.8,1387.2z M3790.8,1484 c6.7,9.6,6.4,22.2-0.3,31.7c18.7,15.8,36.2,32.9,51.6,51.9c15.5-30.4,41-57,74.1-67.6c-33.1-10.6-58.6-37.3-74-67.6 C3826.8,1451.3,3809.3,1468.3,3790.8,1484z" style="fill: rgb(125, 78, 6);"/></g><g id="__id16_stwk72kzgd"><path d="M151.1,1477.9c16.4-3.6,32.4,15.9,24.3,31.1c-5.9,14.8-27.9,18.2-37.4,5.1 C126.5,1501.8,135.3,1480.6,151.1,1477.9z" style="fill: rgb(125, 78, 6);"/></g><g id="__id17_stwk72kzgd"><path d="M3839.7,1478c14.3-3.3,29.6,10.2,26.8,25c-1.4,15.8-22.3,25.4-34.8,15.1 C3816.2,1508.2,3821.5,1481.4,3839.7,1478z" style="fill: rgb(125, 78, 6);"/></g></g></svg>